<svg width="24" height="25" viewBox="0 0 24 25" fill="none" xmlns="http://www.w3.org/2000/svg">
<path d="M12 12.0955C14.7614 12.0955 17 9.85688 17 7.09546C17 4.33404 14.7614 2.09546 12 2.09546C9.23858 2.09546 7 4.33404 7 7.09546C7 9.85688 9.23858 12.0955 12 12.0955Z" stroke="#101623" stroke-width="1.5" stroke-linecap="round" stroke-linejoin="round"/>
<path d="M3.41003 22.0955C3.41003 18.2255 7.26003 15.0955 12 15.0955C12.96 15.0955 13.89 15.2255 14.76 15.4655" stroke="#101623" stroke-width="1.5" stroke-linecap="round" stroke-linejoin="round"/>
<path d="M22 18.0955C22 18.4155 21.96 18.7255 21.88 19.0255C21.79 19.4255 21.63 19.8155 21.42 20.1555C20.73 21.3155 19.46 22.0955 18 22.0955C16.97 22.0955 16.04 21.7054 15.34 21.0654C15.04 20.8054 14.78 20.4955 14.58 20.1555C14.21 19.5555 14 18.8455 14 18.0955C14 17.0155 14.43 16.0255 15.13 15.3055C15.86 14.5555 16.88 14.0955 18 14.0955C19.18 14.0955 20.25 14.6055 20.97 15.4255C21.61 16.1355 22 17.0755 22 18.0955Z" stroke="#101623" stroke-width="1.5" stroke-miterlimit="10" stroke-linecap="round" stroke-linejoin="round"/>
<path d="M19.49 18.0754H16.51" stroke="#101623" stroke-width="1.5" stroke-miterlimit="10" stroke-linecap="round" stroke-linejoin="round"/>
<path d="M18 16.6155V19.6055" stroke="#101623" stroke-width="1.5" stroke-miterlimit="10" stroke-linecap="round" stroke-linejoin="round"/>
</svg>
