<svg width="24" height="25" viewBox="0 0 24 25" fill="none" xmlns="http://www.w3.org/2000/svg">
<path d="M18.04 13.6454C17.62 14.0554 17.38 14.6455 17.44 15.2755C17.53 16.3555 18.52 17.1454 19.6 17.1454H21.5V18.3354C21.5 20.4054 19.81 22.0955 17.74 22.0955H7.63C7.94 21.8355 8.21 21.5155 8.42 21.1555C8.79 20.5555 9 19.8455 9 19.0955C9 16.8855 7.21 15.0955 5 15.0955C4.06 15.0955 3.19 15.4255 2.5 15.9755V11.6055C2.5 9.53547 4.18999 7.84546 6.25999 7.84546H17.74C19.81 7.84546 21.5 9.53547 21.5 11.6055V13.0455H19.48C18.92 13.0455 18.41 13.2654 18.04 13.6454Z" stroke="#101623" stroke-width="1.5" stroke-linecap="round" stroke-linejoin="round"/>
<path d="M2.5 12.5055V7.93556C2.5 6.74556 3.23 5.68552 4.34 5.26552L12.28 2.26552C13.52 1.79552 14.85 2.71555 14.85 4.04555V7.84554" stroke="#101623" stroke-width="1.5" stroke-linecap="round" stroke-linejoin="round"/>
<path d="M22.5588 14.0656V16.1257C22.5588 16.6757 22.1188 17.1256 21.5588 17.1456H19.5988C18.5188 17.1456 17.5288 16.3556 17.4388 15.2756C17.3788 14.6456 17.6188 14.0556 18.0388 13.6456C18.4088 13.2656 18.9188 13.0457 19.4788 13.0457H21.5588C22.1188 13.0657 22.5588 13.5156 22.5588 14.0656Z" stroke="#101623" stroke-width="1.5" stroke-linecap="round" stroke-linejoin="round"/>
<path d="M7 12.0955H14" stroke="#101623" stroke-width="1.5" stroke-linecap="round" stroke-linejoin="round"/>
<path d="M9 19.0955C9 19.8455 8.79 20.5555 8.42 21.1555C8.21 21.5155 7.94 21.8355 7.63 22.0955C6.93 22.7255 6.01 23.0955 5 23.0955C3.54 23.0955 2.27 22.3155 1.58 21.1555C1.21 20.5555 1 19.8455 1 19.0955C1 17.8355 1.58 16.7055 2.5 15.9755C3.19 15.4255 4.06 15.0955 5 15.0955C7.21 15.0955 9 16.8855 9 19.0955Z" stroke="#101623" stroke-width="1.5" stroke-miterlimit="10" stroke-linecap="round" stroke-linejoin="round"/>
<path d="M3.44141 19.095L4.4314 20.085L6.5614 18.115" stroke="#101623" stroke-width="1.5" stroke-linecap="round" stroke-linejoin="round"/>
</svg>
